<mxfile host="www.draw.io" modified="2019-11-25T01:19:58.352Z" agent="Mozilla/5.0 (Macintosh; Intel Mac OS X 10_15_1) AppleWebKit/537.36 (KHTML, like Gecko) Chrome/78.0.3904.97 Safari/537.36" etag="uHJoj7nNUXXmJWzXcrM2" version="12.2.9" type="github" pages="4">
  <diagram id="Gin3zz9YTtRB8VcTjQMi" name="Use cases">
    <mxGraphModel dx="932" dy="559" grid="1" gridSize="10" guides="1" tooltips="1" connect="1" arrows="1" fold="1" page="1" pageScale="1" pageWidth="827" pageHeight="1169" math="0" shadow="0">
      <root>
        <mxCell id="WqLShBo1qFKrbjZZbIVV-0"/>
        <mxCell id="WqLShBo1qFKrbjZZbIVV-1" parent="WqLShBo1qFKrbjZZbIVV-0"/>
        <mxCell id="W36nq-j1ywvkmm1FhSia-29" value="" style="rounded=0;whiteSpace=wrap;html=1;shadow=1;glass=0;comic=1;fillColor=#ffe6cc;strokeColor=#d79b00;" parent="WqLShBo1qFKrbjZZbIVV-1" vertex="1">
          <mxGeometry x="110" y="750" width="450" height="200" as="geometry"/>
        </mxCell>
        <mxCell id="W36nq-j1ywvkmm1FhSia-27" value="" style="rounded=0;whiteSpace=wrap;html=1;shadow=1;glass=0;comic=1;fillColor=#d5e8d4;strokeColor=#82b366;" parent="WqLShBo1qFKrbjZZbIVV-1" vertex="1">
          <mxGeometry x="110" y="530" width="450" height="200" as="geometry"/>
        </mxCell>
        <mxCell id="W36nq-j1ywvkmm1FhSia-15" value="" style="rounded=0;whiteSpace=wrap;html=1;shadow=1;glass=0;comic=1;fillColor=#fff2cc;strokeColor=#d6b656;" parent="WqLShBo1qFKrbjZZbIVV-1" vertex="1">
          <mxGeometry x="110" y="100" width="450" height="410" as="geometry"/>
        </mxCell>
        <mxCell id="pD64362p6lKJw0IgHQMT-1" value="&lt;div&gt;COURIER MANAGEMENT SYSTEM:&amp;nbsp;&lt;/div&gt;&lt;div&gt;Government or private companies can take up the system and use it for keeping a tab on the movement of every courier and article. This system will increase transparency.&lt;/div&gt;" style="text;html=1;strokeColor=none;fillColor=none;align=left;verticalAlign=middle;whiteSpace=wrap;rounded=0;" parent="WqLShBo1qFKrbjZZbIVV-1" vertex="1">
          <mxGeometry x="40" y="30" width="520" height="60" as="geometry"/>
        </mxCell>
        <mxCell id="W36nq-j1ywvkmm1FhSia-10" style="edgeStyle=orthogonalEdgeStyle;rounded=0;orthogonalLoop=1;jettySize=auto;html=1;exitX=0.5;exitY=0.5;exitDx=0;exitDy=0;exitPerimeter=0;entryX=0;entryY=0.5;entryDx=0;entryDy=0;" parent="WqLShBo1qFKrbjZZbIVV-1" source="W36nq-j1ywvkmm1FhSia-0" target="W36nq-j1ywvkmm1FhSia-2" edge="1">
          <mxGeometry relative="1" as="geometry"/>
        </mxCell>
        <mxCell id="W36nq-j1ywvkmm1FhSia-0" value="Sender User" style="shape=umlActor;verticalLabelPosition=bottom;labelBackgroundColor=#ffffff;verticalAlign=top;html=1;" parent="WqLShBo1qFKrbjZZbIVV-1" vertex="1">
          <mxGeometry x="50" y="120" width="30" height="60" as="geometry"/>
        </mxCell>
        <mxCell id="W36nq-j1ywvkmm1FhSia-11" style="edgeStyle=orthogonalEdgeStyle;rounded=0;orthogonalLoop=1;jettySize=auto;html=1;exitX=0.5;exitY=0.5;exitDx=0;exitDy=0;exitPerimeter=0;curved=1;" parent="WqLShBo1qFKrbjZZbIVV-1" source="W36nq-j1ywvkmm1FhSia-1" target="W36nq-j1ywvkmm1FhSia-4" edge="1">
          <mxGeometry relative="1" as="geometry"/>
        </mxCell>
        <mxCell id="W36nq-j1ywvkmm1FhSia-12" style="edgeStyle=orthogonalEdgeStyle;rounded=0;orthogonalLoop=1;jettySize=auto;html=1;exitX=0.5;exitY=0.5;exitDx=0;exitDy=0;exitPerimeter=0;entryX=0;entryY=0.5;entryDx=0;entryDy=0;curved=1;" parent="WqLShBo1qFKrbjZZbIVV-1" source="W36nq-j1ywvkmm1FhSia-1" target="W36nq-j1ywvkmm1FhSia-5" edge="1">
          <mxGeometry relative="1" as="geometry"/>
        </mxCell>
        <mxCell id="W36nq-j1ywvkmm1FhSia-1" value="Courrier" style="shape=umlActor;verticalLabelPosition=bottom;labelBackgroundColor=#ffffff;verticalAlign=top;html=1;" parent="WqLShBo1qFKrbjZZbIVV-1" vertex="1">
          <mxGeometry x="50" y="260" width="30" height="60" as="geometry"/>
        </mxCell>
        <mxCell id="W36nq-j1ywvkmm1FhSia-14" style="edgeStyle=orthogonalEdgeStyle;rounded=0;orthogonalLoop=1;jettySize=auto;html=1;exitX=1;exitY=0.5;exitDx=0;exitDy=0;entryX=0;entryY=0.5;entryDx=0;entryDy=0;" parent="WqLShBo1qFKrbjZZbIVV-1" source="W36nq-j1ywvkmm1FhSia-2" target="W36nq-j1ywvkmm1FhSia-3" edge="1">
          <mxGeometry relative="1" as="geometry"/>
        </mxCell>
        <mxCell id="W36nq-j1ywvkmm1FhSia-2" value="Register S.O. parcel" style="ellipse;whiteSpace=wrap;html=1;" parent="WqLShBo1qFKrbjZZbIVV-1" vertex="1">
          <mxGeometry x="170" y="115" width="140" height="70" as="geometry"/>
        </mxCell>
        <mxCell id="W36nq-j1ywvkmm1FhSia-3" value="Schedule withdrawn" style="ellipse;whiteSpace=wrap;html=1;" parent="WqLShBo1qFKrbjZZbIVV-1" vertex="1">
          <mxGeometry x="390" y="115" width="140" height="70" as="geometry"/>
        </mxCell>
        <mxCell id="W36nq-j1ywvkmm1FhSia-4" value="List next parcels" style="ellipse;whiteSpace=wrap;html=1;" parent="WqLShBo1qFKrbjZZbIVV-1" vertex="1">
          <mxGeometry x="200" y="220" width="140" height="70" as="geometry"/>
        </mxCell>
        <mxCell id="W36nq-j1ywvkmm1FhSia-5" value="Delivery" style="ellipse;whiteSpace=wrap;html=1;" parent="WqLShBo1qFKrbjZZbIVV-1" vertex="1">
          <mxGeometry x="200" y="310" width="140" height="70" as="geometry"/>
        </mxCell>
        <mxCell id="W36nq-j1ywvkmm1FhSia-13" style="edgeStyle=orthogonalEdgeStyle;rounded=0;orthogonalLoop=1;jettySize=auto;html=1;exitX=0.5;exitY=0.5;exitDx=0;exitDy=0;exitPerimeter=0;entryX=0;entryY=0.5;entryDx=0;entryDy=0;" parent="WqLShBo1qFKrbjZZbIVV-1" source="W36nq-j1ywvkmm1FhSia-8" target="W36nq-j1ywvkmm1FhSia-9" edge="1">
          <mxGeometry relative="1" as="geometry"/>
        </mxCell>
        <mxCell id="W36nq-j1ywvkmm1FhSia-8" value="Recipient User" style="shape=umlActor;verticalLabelPosition=bottom;labelBackgroundColor=#ffffff;verticalAlign=top;html=1;" parent="WqLShBo1qFKrbjZZbIVV-1" vertex="1">
          <mxGeometry x="50" y="415" width="30" height="60" as="geometry"/>
        </mxCell>
        <mxCell id="W36nq-j1ywvkmm1FhSia-9" value="Confirm receipt" style="ellipse;whiteSpace=wrap;html=1;" parent="WqLShBo1qFKrbjZZbIVV-1" vertex="1">
          <mxGeometry x="170" y="410" width="140" height="70" as="geometry"/>
        </mxCell>
        <mxCell id="W36nq-j1ywvkmm1FhSia-16" value="Sprint 1" style="text;html=1;strokeColor=none;fillColor=none;align=center;verticalAlign=middle;whiteSpace=wrap;rounded=0;shadow=1;glass=0;comic=1;" parent="WqLShBo1qFKrbjZZbIVV-1" vertex="1">
          <mxGeometry x="450" y="447.5" width="110" height="55" as="geometry"/>
        </mxCell>
        <mxCell id="W36nq-j1ywvkmm1FhSia-20" style="edgeStyle=orthogonalEdgeStyle;rounded=0;orthogonalLoop=1;jettySize=auto;html=1;exitX=0.5;exitY=0.5;exitDx=0;exitDy=0;exitPerimeter=0;entryX=0;entryY=0.5;entryDx=0;entryDy=0;curved=1;" parent="WqLShBo1qFKrbjZZbIVV-1" source="W36nq-j1ywvkmm1FhSia-18" target="W36nq-j1ywvkmm1FhSia-19" edge="1">
          <mxGeometry relative="1" as="geometry"/>
        </mxCell>
        <mxCell id="W36nq-j1ywvkmm1FhSia-24" style="edgeStyle=orthogonalEdgeStyle;rounded=0;orthogonalLoop=1;jettySize=auto;html=1;exitX=0.5;exitY=0.5;exitDx=0;exitDy=0;exitPerimeter=0;entryX=0;entryY=0.5;entryDx=0;entryDy=0;curved=1;" parent="WqLShBo1qFKrbjZZbIVV-1" source="W36nq-j1ywvkmm1FhSia-18" target="W36nq-j1ywvkmm1FhSia-23" edge="1">
          <mxGeometry relative="1" as="geometry"/>
        </mxCell>
        <mxCell id="W36nq-j1ywvkmm1FhSia-25" style="edgeStyle=orthogonalEdgeStyle;rounded=0;orthogonalLoop=1;jettySize=auto;html=1;exitX=0.5;exitY=0.5;exitDx=0;exitDy=0;exitPerimeter=0;entryX=0;entryY=0.5;entryDx=0;entryDy=0;curved=1;" parent="WqLShBo1qFKrbjZZbIVV-1" source="W36nq-j1ywvkmm1FhSia-18" target="W36nq-j1ywvkmm1FhSia-22" edge="1">
          <mxGeometry relative="1" as="geometry"/>
        </mxCell>
        <mxCell id="W36nq-j1ywvkmm1FhSia-26" style="edgeStyle=orthogonalEdgeStyle;rounded=0;orthogonalLoop=1;jettySize=auto;html=1;exitX=0.5;exitY=0.5;exitDx=0;exitDy=0;exitPerimeter=0;entryX=0;entryY=0.5;entryDx=0;entryDy=0;curved=1;" parent="WqLShBo1qFKrbjZZbIVV-1" source="W36nq-j1ywvkmm1FhSia-18" target="W36nq-j1ywvkmm1FhSia-21" edge="1">
          <mxGeometry relative="1" as="geometry"/>
        </mxCell>
        <mxCell id="W36nq-j1ywvkmm1FhSia-18" value="Admin" style="shape=umlActor;verticalLabelPosition=bottom;labelBackgroundColor=#ffffff;verticalAlign=top;html=1;rounded=0;shadow=0;glass=0;comic=1;" parent="WqLShBo1qFKrbjZZbIVV-1" vertex="1">
          <mxGeometry x="50" y="710" width="30" height="60" as="geometry"/>
        </mxCell>
        <mxCell id="W36nq-j1ywvkmm1FhSia-19" value="Manage Users" style="ellipse;whiteSpace=wrap;html=1;rounded=0;shadow=0;glass=0;comic=1;" parent="WqLShBo1qFKrbjZZbIVV-1" vertex="1">
          <mxGeometry x="195" y="552" width="140" height="70" as="geometry"/>
        </mxCell>
        <mxCell id="W36nq-j1ywvkmm1FhSia-21" value="Manage Sites" style="ellipse;whiteSpace=wrap;html=1;rounded=0;shadow=0;glass=0;comic=1;" parent="WqLShBo1qFKrbjZZbIVV-1" vertex="1">
          <mxGeometry x="275" y="642" width="140" height="70" as="geometry"/>
        </mxCell>
        <mxCell id="W36nq-j1ywvkmm1FhSia-22" value="Manage parcel types" style="ellipse;whiteSpace=wrap;html=1;rounded=0;shadow=0;glass=0;comic=1;" parent="WqLShBo1qFKrbjZZbIVV-1" vertex="1">
          <mxGeometry x="275" y="763" width="140" height="70" as="geometry"/>
        </mxCell>
        <mxCell id="W36nq-j1ywvkmm1FhSia-23" value="Manage vehicles types" style="ellipse;whiteSpace=wrap;html=1;rounded=0;shadow=0;glass=0;comic=1;" parent="WqLShBo1qFKrbjZZbIVV-1" vertex="1">
          <mxGeometry x="200" y="853" width="140" height="70" as="geometry"/>
        </mxCell>
        <mxCell id="W36nq-j1ywvkmm1FhSia-28" value="Sprint 2" style="text;html=1;strokeColor=none;fillColor=none;align=center;verticalAlign=middle;whiteSpace=wrap;rounded=0;shadow=1;glass=0;comic=1;" parent="WqLShBo1qFKrbjZZbIVV-1" vertex="1">
          <mxGeometry x="450" y="532.5" width="110" height="55" as="geometry"/>
        </mxCell>
        <mxCell id="W36nq-j1ywvkmm1FhSia-30" value="Sprint 3" style="text;html=1;strokeColor=none;fillColor=none;align=center;verticalAlign=middle;whiteSpace=wrap;rounded=0;shadow=1;glass=0;comic=1;" parent="WqLShBo1qFKrbjZZbIVV-1" vertex="1">
          <mxGeometry x="450" y="750" width="110" height="55" as="geometry"/>
        </mxCell>
        <mxCell id="bc3jNtobeUoNY59Iseb4-0" value="Manager Dashboard" style="ellipse;whiteSpace=wrap;html=1;rounded=0;shadow=0;glass=0;comic=1;" parent="WqLShBo1qFKrbjZZbIVV-1" vertex="1">
          <mxGeometry x="200" y="990" width="140" height="70" as="geometry"/>
        </mxCell>
        <mxCell id="bc3jNtobeUoNY59Iseb4-1" value="User Dashboard" style="ellipse;whiteSpace=wrap;html=1;rounded=0;shadow=0;glass=0;comic=1;" parent="WqLShBo1qFKrbjZZbIVV-1" vertex="1">
          <mxGeometry x="200" y="1080" width="140" height="70" as="geometry"/>
        </mxCell>
      </root>
    </mxGraphModel>
  </diagram>
  <diagram id="3MIBPr1DuWr8hHoo1F6p" name="Activity">
    <mxGraphModel dx="932" dy="559" grid="1" gridSize="10" guides="1" tooltips="1" connect="1" arrows="1" fold="1" page="1" pageScale="1" pageWidth="827" pageHeight="1169" math="0" shadow="0">
      <root>
        <mxCell id="kD-chRC6M5XTS3W6zLgq-0"/>
        <mxCell id="kD-chRC6M5XTS3W6zLgq-1" parent="kD-chRC6M5XTS3W6zLgq-0"/>
        <mxCell id="c6b6NUFiEh8_ippWTyZI-0" value="Register Service Order" style="swimlane;html=1;childLayout=stackLayout;resizeParent=1;resizeParentMax=0;startSize=20;horizontal=0;horizontalStack=1;" vertex="1" parent="kD-chRC6M5XTS3W6zLgq-1">
          <mxGeometry x="20" y="20" width="560" height="860" as="geometry"/>
        </mxCell>
        <mxCell id="c6b6NUFiEh8_ippWTyZI-1" value="Sender" style="swimlane;html=1;startSize=20;" vertex="1" parent="c6b6NUFiEh8_ippWTyZI-0">
          <mxGeometry x="20" width="180" height="860" as="geometry"/>
        </mxCell>
        <mxCell id="gS6GlhuVIUs-LlCnduD4-0" value="" style="ellipse;html=1;shape=startState;fillColor=#000000;strokeColor=#ff0000;" vertex="1" parent="c6b6NUFiEh8_ippWTyZI-1">
          <mxGeometry x="65" y="45" width="30" height="30" as="geometry"/>
        </mxCell>
        <mxCell id="gS6GlhuVIUs-LlCnduD4-1" value="" style="edgeStyle=orthogonalEdgeStyle;html=1;verticalAlign=bottom;endArrow=open;endSize=8;strokeColor=#ff0000;entryX=0.5;entryY=0;entryDx=0;entryDy=0;exitX=0.507;exitY=0.9;exitDx=0;exitDy=0;exitPerimeter=0;" edge="1" source="gS6GlhuVIUs-LlCnduD4-0" parent="c6b6NUFiEh8_ippWTyZI-1" target="gS6GlhuVIUs-LlCnduD4-2">
          <mxGeometry relative="1" as="geometry">
            <mxPoint x="80" y="135" as="targetPoint"/>
          </mxGeometry>
        </mxCell>
        <mxCell id="gS6GlhuVIUs-LlCnduD4-2" value="Create a new Service Order" style="rounded=1;whiteSpace=wrap;html=1;arcSize=40;fontColor=#000000;fillColor=#ffffc0;strokeColor=#ff0000;" vertex="1" parent="c6b6NUFiEh8_ippWTyZI-1">
          <mxGeometry x="20" y="100" width="120" height="40" as="geometry"/>
        </mxCell>
        <mxCell id="gS6GlhuVIUs-LlCnduD4-3" value="" style="edgeStyle=orthogonalEdgeStyle;html=1;verticalAlign=bottom;endArrow=open;endSize=8;strokeColor=#ff0000;entryX=0.5;entryY=0;entryDx=0;entryDy=0;" edge="1" source="gS6GlhuVIUs-LlCnduD4-2" parent="c6b6NUFiEh8_ippWTyZI-1" target="ij5FQ2qFlpFF4FB6Y5Lf-0">
          <mxGeometry relative="1" as="geometry">
            <mxPoint x="80" y="240" as="targetPoint"/>
          </mxGeometry>
        </mxCell>
        <mxCell id="ij5FQ2qFlpFF4FB6Y5Lf-0" value="Include items" style="rounded=1;whiteSpace=wrap;html=1;arcSize=40;fontColor=#000000;fillColor=#ffffc0;strokeColor=#ff0000;" vertex="1" parent="c6b6NUFiEh8_ippWTyZI-1">
          <mxGeometry x="20" y="200" width="120" height="40" as="geometry"/>
        </mxCell>
        <mxCell id="ij5FQ2qFlpFF4FB6Y5Lf-1" value="" style="edgeStyle=orthogonalEdgeStyle;html=1;verticalAlign=bottom;endArrow=open;endSize=8;strokeColor=#ff0000;entryX=0.5;entryY=0;entryDx=0;entryDy=0;" edge="1" source="ij5FQ2qFlpFF4FB6Y5Lf-0" parent="c6b6NUFiEh8_ippWTyZI-1" target="ij5FQ2qFlpFF4FB6Y5Lf-2">
          <mxGeometry relative="1" as="geometry">
            <mxPoint x="120" y="360" as="targetPoint"/>
          </mxGeometry>
        </mxCell>
        <mxCell id="ij5FQ2qFlpFF4FB6Y5Lf-2" value="Release to Courrier" style="rounded=1;whiteSpace=wrap;html=1;arcSize=40;fontColor=#000000;fillColor=#ffffc0;strokeColor=#ff0000;" vertex="1" parent="c6b6NUFiEh8_ippWTyZI-1">
          <mxGeometry x="20" y="301" width="120" height="40" as="geometry"/>
        </mxCell>
        <mxCell id="yzgFc1MnVUGVwmFFSGmN-13" value="" style="ellipse;html=1;shape=endState;fillColor=#000000;strokeColor=#ff0000;" vertex="1" parent="c6b6NUFiEh8_ippWTyZI-1">
          <mxGeometry x="65" y="770" width="30" height="30" as="geometry"/>
        </mxCell>
        <mxCell id="c6b6NUFiEh8_ippWTyZI-2" value="Courrier" style="swimlane;html=1;startSize=20;" vertex="1" parent="c6b6NUFiEh8_ippWTyZI-0">
          <mxGeometry x="200" width="180" height="860" as="geometry"/>
        </mxCell>
        <mxCell id="ij5FQ2qFlpFF4FB6Y5Lf-4" value="Select Service Order" style="rounded=1;whiteSpace=wrap;html=1;arcSize=40;fontColor=#000000;fillColor=#ffffc0;strokeColor=#ff0000;" vertex="1" parent="c6b6NUFiEh8_ippWTyZI-2">
          <mxGeometry x="31" y="200" width="120" height="40" as="geometry"/>
        </mxCell>
        <mxCell id="ij5FQ2qFlpFF4FB6Y5Lf-8" value="Send message to Sender" style="rounded=1;whiteSpace=wrap;html=1;arcSize=40;fontColor=#000000;fillColor=#ffffc0;strokeColor=#ff0000;" vertex="1" parent="c6b6NUFiEh8_ippWTyZI-2">
          <mxGeometry x="31" y="300" width="120" height="40" as="geometry"/>
        </mxCell>
        <mxCell id="yVd2znGUPmOtMmW1gpws-0" value="Colect parcel" style="rounded=1;whiteSpace=wrap;html=1;arcSize=40;fontColor=#000000;fillColor=#ffffc0;strokeColor=#ff0000;" vertex="1" parent="c6b6NUFiEh8_ippWTyZI-2">
          <mxGeometry x="31" y="399" width="120" height="40" as="geometry"/>
        </mxCell>
        <mxCell id="yVd2znGUPmOtMmW1gpws-4" value="Send message to Recipient" style="rounded=1;whiteSpace=wrap;html=1;arcSize=40;fontColor=#000000;fillColor=#ffffc0;strokeColor=#ff0000;" vertex="1" parent="c6b6NUFiEh8_ippWTyZI-2">
          <mxGeometry x="31" y="498" width="120" height="40" as="geometry"/>
        </mxCell>
        <mxCell id="yzgFc1MnVUGVwmFFSGmN-1" value="Deliver" style="rounded=1;whiteSpace=wrap;html=1;arcSize=40;fontColor=#000000;fillColor=#ffffc0;strokeColor=#ff0000;" vertex="1" parent="c6b6NUFiEh8_ippWTyZI-2">
          <mxGeometry x="31" y="597" width="120" height="40" as="geometry"/>
        </mxCell>
        <mxCell id="ij5FQ2qFlpFF4FB6Y5Lf-7" value="" style="edgeStyle=orthogonalEdgeStyle;html=1;verticalAlign=bottom;endArrow=open;endSize=8;strokeColor=#ff0000;exitX=0.5;exitY=1;exitDx=0;exitDy=0;" edge="1" parent="c6b6NUFiEh8_ippWTyZI-2" source="ij5FQ2qFlpFF4FB6Y5Lf-4">
          <mxGeometry relative="1" as="geometry">
            <mxPoint x="91" y="300" as="targetPoint"/>
            <mxPoint x="-50" y="258" as="sourcePoint"/>
          </mxGeometry>
        </mxCell>
        <mxCell id="yVd2znGUPmOtMmW1gpws-3" value="" style="edgeStyle=orthogonalEdgeStyle;html=1;verticalAlign=bottom;endArrow=open;endSize=8;strokeColor=#ff0000;entryX=0.5;entryY=0;entryDx=0;entryDy=0;exitX=0.5;exitY=1;exitDx=0;exitDy=0;" edge="1" parent="c6b6NUFiEh8_ippWTyZI-2" source="ij5FQ2qFlpFF4FB6Y5Lf-8" target="yVd2znGUPmOtMmW1gpws-0">
          <mxGeometry relative="1" as="geometry">
            <mxPoint x="321" y="431" as="targetPoint"/>
            <mxPoint x="321" y="370" as="sourcePoint"/>
          </mxGeometry>
        </mxCell>
        <mxCell id="yzgFc1MnVUGVwmFFSGmN-0" value="" style="edgeStyle=orthogonalEdgeStyle;html=1;verticalAlign=bottom;endArrow=open;endSize=8;strokeColor=#ff0000;entryX=0.5;entryY=0;entryDx=0;entryDy=0;" edge="1" parent="c6b6NUFiEh8_ippWTyZI-2" target="yVd2znGUPmOtMmW1gpws-4">
          <mxGeometry relative="1" as="geometry">
            <mxPoint x="321" y="429" as="targetPoint"/>
            <mxPoint x="91" y="440" as="sourcePoint"/>
          </mxGeometry>
        </mxCell>
        <mxCell id="yzgFc1MnVUGVwmFFSGmN-8" value="" style="edgeStyle=orthogonalEdgeStyle;html=1;verticalAlign=bottom;endArrow=open;endSize=8;strokeColor=#ff0000;entryX=0.5;entryY=0;entryDx=0;entryDy=0;" edge="1" parent="c6b6NUFiEh8_ippWTyZI-2" source="yVd2znGUPmOtMmW1gpws-4" target="yzgFc1MnVUGVwmFFSGmN-1">
          <mxGeometry relative="1" as="geometry">
            <mxPoint x="321" y="528" as="targetPoint"/>
            <mxPoint x="321" y="470" as="sourcePoint"/>
          </mxGeometry>
        </mxCell>
        <mxCell id="c6b6NUFiEh8_ippWTyZI-3" value="Recipient" style="swimlane;html=1;startSize=20;" vertex="1" parent="c6b6NUFiEh8_ippWTyZI-0">
          <mxGeometry x="380" width="180" height="860" as="geometry"/>
        </mxCell>
        <mxCell id="yzgFc1MnVUGVwmFFSGmN-4" value="Receive" style="rounded=1;whiteSpace=wrap;html=1;arcSize=40;fontColor=#000000;fillColor=#ffffc0;strokeColor=#ff0000;" vertex="1" parent="c6b6NUFiEh8_ippWTyZI-3">
          <mxGeometry x="40" y="580" width="120" height="40" as="geometry"/>
        </mxCell>
        <mxCell id="yzgFc1MnVUGVwmFFSGmN-6" value="Send message to Sender" style="rounded=1;whiteSpace=wrap;html=1;arcSize=40;fontColor=#000000;fillColor=#ffffc0;strokeColor=#ff0000;" vertex="1" parent="c6b6NUFiEh8_ippWTyZI-3">
          <mxGeometry x="40" y="700" width="120" height="40" as="geometry"/>
        </mxCell>
        <mxCell id="yzgFc1MnVUGVwmFFSGmN-10" value="" style="edgeStyle=orthogonalEdgeStyle;html=1;verticalAlign=bottom;endArrow=open;endSize=8;strokeColor=#ff0000;entryX=0.5;entryY=0;entryDx=0;entryDy=0;" edge="1" parent="c6b6NUFiEh8_ippWTyZI-3" source="yzgFc1MnVUGVwmFFSGmN-4" target="yzgFc1MnVUGVwmFFSGmN-6">
          <mxGeometry relative="1" as="geometry">
            <mxPoint x="141" y="627" as="targetPoint"/>
            <mxPoint x="141" y="568" as="sourcePoint"/>
          </mxGeometry>
        </mxCell>
        <mxCell id="ij5FQ2qFlpFF4FB6Y5Lf-3" value="" style="edgeStyle=orthogonalEdgeStyle;html=1;verticalAlign=bottom;endArrow=open;endSize=8;strokeColor=#ff0000;entryX=0;entryY=0.5;entryDx=0;entryDy=0;" edge="1" source="ij5FQ2qFlpFF4FB6Y5Lf-2" parent="c6b6NUFiEh8_ippWTyZI-0" target="ij5FQ2qFlpFF4FB6Y5Lf-4">
          <mxGeometry relative="1" as="geometry">
            <mxPoint x="180" y="500" as="targetPoint"/>
            <Array as="points">
              <mxPoint x="100" y="370"/>
              <mxPoint x="180" y="370"/>
              <mxPoint x="180" y="220"/>
            </Array>
          </mxGeometry>
        </mxCell>
        <mxCell id="yzgFc1MnVUGVwmFFSGmN-9" value="" style="edgeStyle=orthogonalEdgeStyle;html=1;verticalAlign=bottom;endArrow=open;endSize=8;strokeColor=#ff0000;entryX=0;entryY=0.5;entryDx=0;entryDy=0;exitX=0.5;exitY=1;exitDx=0;exitDy=0;" edge="1" parent="c6b6NUFiEh8_ippWTyZI-0" source="yzgFc1MnVUGVwmFFSGmN-1" target="yzgFc1MnVUGVwmFFSGmN-4">
          <mxGeometry relative="1" as="geometry">
            <mxPoint x="521" y="648" as="targetPoint"/>
            <mxPoint x="521" y="568" as="sourcePoint"/>
            <Array as="points">
              <mxPoint x="291" y="660"/>
              <mxPoint x="400" y="660"/>
              <mxPoint x="400" y="600"/>
            </Array>
          </mxGeometry>
        </mxCell>
        <mxCell id="yzgFc1MnVUGVwmFFSGmN-14" value="" style="edgeStyle=orthogonalEdgeStyle;html=1;verticalAlign=bottom;endArrow=open;endSize=8;strokeColor=#ff0000;entryX=1;entryY=0.5;entryDx=0;entryDy=0;exitX=0.5;exitY=1;exitDx=0;exitDy=0;" edge="1" parent="c6b6NUFiEh8_ippWTyZI-0" source="yzgFc1MnVUGVwmFFSGmN-6" target="yzgFc1MnVUGVwmFFSGmN-13">
          <mxGeometry relative="1" as="geometry">
            <mxPoint x="890" y="730" as="targetPoint"/>
            <mxPoint x="890" y="650" as="sourcePoint"/>
          </mxGeometry>
        </mxCell>
      </root>
    </mxGraphModel>
  </diagram>
  <diagram id="QVpVLMBfi0r77Kh0kHDp" name="Model class diagram">
    <mxGraphModel dx="932" dy="559" grid="1" gridSize="10" guides="1" tooltips="1" connect="1" arrows="1" fold="1" page="1" pageScale="1" pageWidth="827" pageHeight="1169" math="0" shadow="0">
      <root>
        <mxCell id="f95XN5LD76LZMHps0_PT-0"/>
        <mxCell id="f95XN5LD76LZMHps0_PT-1" parent="f95XN5LD76LZMHps0_PT-0"/>
        <mxCell id="61BDvBa1WqFvooefmnLm-0" value="User" style="swimlane;fontStyle=0;childLayout=stackLayout;horizontal=1;startSize=26;fillColor=none;horizontalStack=0;resizeParent=1;resizeParentMax=0;resizeLast=0;collapsible=1;marginBottom=0;" parent="f95XN5LD76LZMHps0_PT-1" vertex="1">
          <mxGeometry x="80" y="80" width="140" height="104" as="geometry"/>
        </mxCell>
        <mxCell id="61BDvBa1WqFvooefmnLm-1" value="+ field: type" style="text;strokeColor=none;fillColor=none;align=left;verticalAlign=top;spacingLeft=4;spacingRight=4;overflow=hidden;rotatable=0;points=[[0,0.5],[1,0.5]];portConstraint=eastwest;" parent="61BDvBa1WqFvooefmnLm-0" vertex="1">
          <mxGeometry y="26" width="140" height="26" as="geometry"/>
        </mxCell>
        <mxCell id="61BDvBa1WqFvooefmnLm-2" value="+ field: type" style="text;strokeColor=none;fillColor=none;align=left;verticalAlign=top;spacingLeft=4;spacingRight=4;overflow=hidden;rotatable=0;points=[[0,0.5],[1,0.5]];portConstraint=eastwest;" parent="61BDvBa1WqFvooefmnLm-0" vertex="1">
          <mxGeometry y="52" width="140" height="26" as="geometry"/>
        </mxCell>
        <mxCell id="61BDvBa1WqFvooefmnLm-3" value="+ field: type" style="text;strokeColor=none;fillColor=none;align=left;verticalAlign=top;spacingLeft=4;spacingRight=4;overflow=hidden;rotatable=0;points=[[0,0.5],[1,0.5]];portConstraint=eastwest;" parent="61BDvBa1WqFvooefmnLm-0" vertex="1">
          <mxGeometry y="78" width="140" height="26" as="geometry"/>
        </mxCell>
        <mxCell id="61BDvBa1WqFvooefmnLm-4" value="Courrier" style="swimlane;fontStyle=0;childLayout=stackLayout;horizontal=1;startSize=26;fillColor=none;horizontalStack=0;resizeParent=1;resizeParentMax=0;resizeLast=0;collapsible=1;marginBottom=0;" parent="f95XN5LD76LZMHps0_PT-1" vertex="1">
          <mxGeometry x="280" y="80" width="140" height="104" as="geometry"/>
        </mxCell>
        <mxCell id="61BDvBa1WqFvooefmnLm-5" value="+ field: type" style="text;strokeColor=none;fillColor=none;align=left;verticalAlign=top;spacingLeft=4;spacingRight=4;overflow=hidden;rotatable=0;points=[[0,0.5],[1,0.5]];portConstraint=eastwest;" parent="61BDvBa1WqFvooefmnLm-4" vertex="1">
          <mxGeometry y="26" width="140" height="26" as="geometry"/>
        </mxCell>
        <mxCell id="61BDvBa1WqFvooefmnLm-6" value="+ field: type" style="text;strokeColor=none;fillColor=none;align=left;verticalAlign=top;spacingLeft=4;spacingRight=4;overflow=hidden;rotatable=0;points=[[0,0.5],[1,0.5]];portConstraint=eastwest;" parent="61BDvBa1WqFvooefmnLm-4" vertex="1">
          <mxGeometry y="52" width="140" height="26" as="geometry"/>
        </mxCell>
        <mxCell id="61BDvBa1WqFvooefmnLm-7" value="+ field: type" style="text;strokeColor=none;fillColor=none;align=left;verticalAlign=top;spacingLeft=4;spacingRight=4;overflow=hidden;rotatable=0;points=[[0,0.5],[1,0.5]];portConstraint=eastwest;" parent="61BDvBa1WqFvooefmnLm-4" vertex="1">
          <mxGeometry y="78" width="140" height="26" as="geometry"/>
        </mxCell>
        <mxCell id="61BDvBa1WqFvooefmnLm-8" value="Parcel" style="swimlane;fontStyle=0;childLayout=stackLayout;horizontal=1;startSize=26;fillColor=none;horizontalStack=0;resizeParent=1;resizeParentMax=0;resizeLast=0;collapsible=1;marginBottom=0;" parent="f95XN5LD76LZMHps0_PT-1" vertex="1">
          <mxGeometry x="480" y="520" width="140" height="104" as="geometry"/>
        </mxCell>
        <mxCell id="61BDvBa1WqFvooefmnLm-9" value="+ field: type" style="text;strokeColor=none;fillColor=none;align=left;verticalAlign=top;spacingLeft=4;spacingRight=4;overflow=hidden;rotatable=0;points=[[0,0.5],[1,0.5]];portConstraint=eastwest;" parent="61BDvBa1WqFvooefmnLm-8" vertex="1">
          <mxGeometry y="26" width="140" height="26" as="geometry"/>
        </mxCell>
        <mxCell id="61BDvBa1WqFvooefmnLm-10" value="+ field: type" style="text;strokeColor=none;fillColor=none;align=left;verticalAlign=top;spacingLeft=4;spacingRight=4;overflow=hidden;rotatable=0;points=[[0,0.5],[1,0.5]];portConstraint=eastwest;" parent="61BDvBa1WqFvooefmnLm-8" vertex="1">
          <mxGeometry y="52" width="140" height="26" as="geometry"/>
        </mxCell>
        <mxCell id="61BDvBa1WqFvooefmnLm-11" value="+ field: type" style="text;strokeColor=none;fillColor=none;align=left;verticalAlign=top;spacingLeft=4;spacingRight=4;overflow=hidden;rotatable=0;points=[[0,0.5],[1,0.5]];portConstraint=eastwest;" parent="61BDvBa1WqFvooefmnLm-8" vertex="1">
          <mxGeometry y="78" width="140" height="26" as="geometry"/>
        </mxCell>
        <mxCell id="61BDvBa1WqFvooefmnLm-12" value="ServiceOrder" style="swimlane;fontStyle=0;childLayout=stackLayout;horizontal=1;startSize=26;fillColor=none;horizontalStack=0;resizeParent=1;resizeParentMax=0;resizeLast=0;collapsible=1;marginBottom=0;" parent="f95XN5LD76LZMHps0_PT-1" vertex="1">
          <mxGeometry x="280" y="340" width="140" height="104" as="geometry"/>
        </mxCell>
        <mxCell id="61BDvBa1WqFvooefmnLm-13" value="- creation: Date" style="text;strokeColor=none;fillColor=none;align=left;verticalAlign=top;spacingLeft=4;spacingRight=4;overflow=hidden;rotatable=0;points=[[0,0.5],[1,0.5]];portConstraint=eastwest;" parent="61BDvBa1WqFvooefmnLm-12" vertex="1">
          <mxGeometry y="26" width="140" height="26" as="geometry"/>
        </mxCell>
        <mxCell id="61BDvBa1WqFvooefmnLm-14" value="- sender: User" style="text;strokeColor=none;fillColor=none;align=left;verticalAlign=top;spacingLeft=4;spacingRight=4;overflow=hidden;rotatable=0;points=[[0,0.5],[1,0.5]];portConstraint=eastwest;" parent="61BDvBa1WqFvooefmnLm-12" vertex="1">
          <mxGeometry y="52" width="140" height="26" as="geometry"/>
        </mxCell>
        <mxCell id="61BDvBa1WqFvooefmnLm-15" value="- recipient: User" style="text;strokeColor=none;fillColor=none;align=left;verticalAlign=top;spacingLeft=4;spacingRight=4;overflow=hidden;rotatable=0;points=[[0,0.5],[1,0.5]];portConstraint=eastwest;" parent="61BDvBa1WqFvooefmnLm-12" vertex="1">
          <mxGeometry y="78" width="140" height="26" as="geometry"/>
        </mxCell>
        <mxCell id="61BDvBa1WqFvooefmnLm-16" value="VehicleType" style="swimlane;fontStyle=0;childLayout=stackLayout;horizontal=1;startSize=26;fillColor=none;horizontalStack=0;resizeParent=1;resizeParentMax=0;resizeLast=0;collapsible=1;marginBottom=0;" parent="f95XN5LD76LZMHps0_PT-1" vertex="1">
          <mxGeometry x="520" y="80" width="140" height="104" as="geometry"/>
        </mxCell>
        <mxCell id="61BDvBa1WqFvooefmnLm-17" value="+ field: type" style="text;strokeColor=none;fillColor=none;align=left;verticalAlign=top;spacingLeft=4;spacingRight=4;overflow=hidden;rotatable=0;points=[[0,0.5],[1,0.5]];portConstraint=eastwest;" parent="61BDvBa1WqFvooefmnLm-16" vertex="1">
          <mxGeometry y="26" width="140" height="26" as="geometry"/>
        </mxCell>
        <mxCell id="61BDvBa1WqFvooefmnLm-18" value="+ field: type" style="text;strokeColor=none;fillColor=none;align=left;verticalAlign=top;spacingLeft=4;spacingRight=4;overflow=hidden;rotatable=0;points=[[0,0.5],[1,0.5]];portConstraint=eastwest;" parent="61BDvBa1WqFvooefmnLm-16" vertex="1">
          <mxGeometry y="52" width="140" height="26" as="geometry"/>
        </mxCell>
        <mxCell id="61BDvBa1WqFvooefmnLm-19" value="+ field: type" style="text;strokeColor=none;fillColor=none;align=left;verticalAlign=top;spacingLeft=4;spacingRight=4;overflow=hidden;rotatable=0;points=[[0,0.5],[1,0.5]];portConstraint=eastwest;" parent="61BDvBa1WqFvooefmnLm-16" vertex="1">
          <mxGeometry y="78" width="140" height="26" as="geometry"/>
        </mxCell>
        <mxCell id="x15rvsJZArqac77tIpfR-0" value="ParcelType" style="swimlane;fontStyle=0;childLayout=stackLayout;horizontal=1;startSize=26;fillColor=none;horizontalStack=0;resizeParent=1;resizeParentMax=0;resizeLast=0;collapsible=1;marginBottom=0;" parent="f95XN5LD76LZMHps0_PT-1" vertex="1">
          <mxGeometry x="80" y="520" width="140" height="104" as="geometry"/>
        </mxCell>
        <mxCell id="x15rvsJZArqac77tIpfR-1" value="+ field: type" style="text;strokeColor=none;fillColor=none;align=left;verticalAlign=top;spacingLeft=4;spacingRight=4;overflow=hidden;rotatable=0;points=[[0,0.5],[1,0.5]];portConstraint=eastwest;" parent="x15rvsJZArqac77tIpfR-0" vertex="1">
          <mxGeometry y="26" width="140" height="26" as="geometry"/>
        </mxCell>
        <mxCell id="x15rvsJZArqac77tIpfR-2" value="+ field: type" style="text;strokeColor=none;fillColor=none;align=left;verticalAlign=top;spacingLeft=4;spacingRight=4;overflow=hidden;rotatable=0;points=[[0,0.5],[1,0.5]];portConstraint=eastwest;" parent="x15rvsJZArqac77tIpfR-0" vertex="1">
          <mxGeometry y="52" width="140" height="26" as="geometry"/>
        </mxCell>
        <mxCell id="x15rvsJZArqac77tIpfR-3" value="+ field: type" style="text;strokeColor=none;fillColor=none;align=left;verticalAlign=top;spacingLeft=4;spacingRight=4;overflow=hidden;rotatable=0;points=[[0,0.5],[1,0.5]];portConstraint=eastwest;" parent="x15rvsJZArqac77tIpfR-0" vertex="1">
          <mxGeometry y="78" width="140" height="26" as="geometry"/>
        </mxCell>
        <mxCell id="6C6aFfcWQ4NulCrSA5dy-0" value="use" style="endArrow=open;endSize=12;dashed=1;html=1;exitX=0;exitY=0.5;exitDx=0;exitDy=0;" edge="1" parent="f95XN5LD76LZMHps0_PT-1" source="61BDvBa1WqFvooefmnLm-13" target="61BDvBa1WqFvooefmnLm-3">
          <mxGeometry width="160" relative="1" as="geometry">
            <mxPoint x="140" y="261.5" as="sourcePoint"/>
            <mxPoint x="300" y="261.5" as="targetPoint"/>
          </mxGeometry>
        </mxCell>
        <mxCell id="6C6aFfcWQ4NulCrSA5dy-1" value="use" style="endArrow=open;endSize=12;dashed=1;html=1;exitX=0.5;exitY=0;exitDx=0;exitDy=0;" edge="1" parent="f95XN5LD76LZMHps0_PT-1" source="61BDvBa1WqFvooefmnLm-12" target="61BDvBa1WqFvooefmnLm-7">
          <mxGeometry width="160" relative="1" as="geometry">
            <mxPoint x="290" y="389" as="sourcePoint"/>
            <mxPoint x="168.125" y="194" as="targetPoint"/>
          </mxGeometry>
        </mxCell>
        <mxCell id="6C6aFfcWQ4NulCrSA5dy-2" value="use" style="endArrow=open;endSize=12;dashed=1;html=1;entryX=0;entryY=0.5;entryDx=0;entryDy=0;" edge="1" parent="f95XN5LD76LZMHps0_PT-1" source="61BDvBa1WqFvooefmnLm-6" target="61BDvBa1WqFvooefmnLm-18">
          <mxGeometry width="160" relative="1" as="geometry">
            <mxPoint x="360" y="350" as="sourcePoint"/>
            <mxPoint x="360" y="194" as="targetPoint"/>
          </mxGeometry>
        </mxCell>
        <mxCell id="6C6aFfcWQ4NulCrSA5dy-3" value="" style="endArrow=diamondThin;endFill=0;endSize=24;html=1;entryX=1;entryY=0.5;entryDx=0;entryDy=0;exitX=0.5;exitY=0;exitDx=0;exitDy=0;" edge="1" parent="f95XN5LD76LZMHps0_PT-1" source="61BDvBa1WqFvooefmnLm-8" target="61BDvBa1WqFvooefmnLm-14">
          <mxGeometry width="160" relative="1" as="geometry">
            <mxPoint x="70" y="400" as="sourcePoint"/>
            <mxPoint x="230" y="400" as="targetPoint"/>
          </mxGeometry>
        </mxCell>
        <mxCell id="6C6aFfcWQ4NulCrSA5dy-4" value="use" style="endArrow=open;endSize=12;dashed=1;html=1;entryX=1;entryY=0.5;entryDx=0;entryDy=0;exitX=0;exitY=0.5;exitDx=0;exitDy=0;" edge="1" parent="f95XN5LD76LZMHps0_PT-1" source="61BDvBa1WqFvooefmnLm-10" target="x15rvsJZArqac77tIpfR-2">
          <mxGeometry width="160" relative="1" as="geometry">
            <mxPoint x="320" y="520" as="sourcePoint"/>
            <mxPoint x="420" y="520" as="targetPoint"/>
          </mxGeometry>
        </mxCell>
      </root>
    </mxGraphModel>
  </diagram>
  <diagram name="Page-1" id="c4acf3e9-155e-7222-9cf6-157b1a14988f">
    <mxGraphModel dx="932" dy="559" grid="1" gridSize="10" guides="1" tooltips="1" connect="1" arrows="1" fold="1" page="1" pageScale="1" pageWidth="850" pageHeight="1100" background="#ffffff" math="0" shadow="0">
      <root>
        <mxCell id="0"/>
        <mxCell id="1" parent="0"/>
        <mxCell id="17acba5748e5396b-1" value="frame" style="shape=umlFrame;whiteSpace=wrap;html=1;rounded=0;shadow=0;comic=0;labelBackgroundColor=none;strokeWidth=1;fontFamily=Verdana;fontSize=10;align=center;" parent="1" vertex="1">
          <mxGeometry x="20" y="20" width="820" height="1060" as="geometry"/>
        </mxCell>
        <mxCell id="5d2195bd80daf111-38" style="edgeStyle=orthogonalEdgeStyle;rounded=0;html=1;dashed=1;labelBackgroundColor=none;startFill=0;endArrow=open;endFill=0;endSize=10;fontFamily=Verdana;fontSize=10;" parent="1" source="17acba5748e5396b-2" target="5d2195bd80daf111-9" edge="1">
          <mxGeometry relative="1" as="geometry">
            <Array as="points">
              <mxPoint x="590" y="721"/>
            </Array>
          </mxGeometry>
        </mxCell>
        <mxCell id="5d2195bd80daf111-40" style="edgeStyle=orthogonalEdgeStyle;rounded=0;html=1;dashed=1;labelBackgroundColor=none;startFill=0;endArrow=open;endFill=0;endSize=10;fontFamily=Verdana;fontSize=10;" parent="1" source="17acba5748e5396b-2" target="5d2195bd80daf111-1" edge="1">
          <mxGeometry relative="1" as="geometry">
            <Array as="points"/>
          </mxGeometry>
        </mxCell>
        <mxCell id="17acba5748e5396b-2" value="Classname" style="swimlane;html=1;fontStyle=0;childLayout=stackLayout;horizontal=1;startSize=26;fillColor=none;horizontalStack=0;resizeParent=1;resizeLast=0;collapsible=1;marginBottom=0;swimlaneFillColor=#ffffff;rounded=0;shadow=0;comic=0;labelBackgroundColor=none;strokeWidth=1;fontFamily=Verdana;fontSize=10;align=center;" parent="1" vertex="1">
          <mxGeometry x="650" y="628" width="160" height="186" as="geometry"/>
        </mxCell>
        <mxCell id="17acba5748e5396b-3" value="+ field: type" style="text;html=1;strokeColor=none;fillColor=none;align=left;verticalAlign=top;spacingLeft=4;spacingRight=4;whiteSpace=wrap;overflow=hidden;rotatable=0;points=[[0,0.5],[1,0.5]];portConstraint=eastwest;" parent="17acba5748e5396b-2" vertex="1">
          <mxGeometry y="26" width="160" height="26" as="geometry"/>
        </mxCell>
        <mxCell id="17acba5748e5396b-4" value="+ field: type" style="text;html=1;strokeColor=none;fillColor=none;align=left;verticalAlign=top;spacingLeft=4;spacingRight=4;whiteSpace=wrap;overflow=hidden;rotatable=0;points=[[0,0.5],[1,0.5]];portConstraint=eastwest;" parent="17acba5748e5396b-2" vertex="1">
          <mxGeometry y="52" width="160" height="26" as="geometry"/>
        </mxCell>
        <mxCell id="17acba5748e5396b-6" value="+ field: type" style="text;html=1;strokeColor=none;fillColor=none;align=left;verticalAlign=top;spacingLeft=4;spacingRight=4;whiteSpace=wrap;overflow=hidden;rotatable=0;points=[[0,0.5],[1,0.5]];portConstraint=eastwest;" parent="17acba5748e5396b-2" vertex="1">
          <mxGeometry y="78" width="160" height="26" as="geometry"/>
        </mxCell>
        <mxCell id="17acba5748e5396b-9" value="+ field: type" style="text;html=1;strokeColor=none;fillColor=none;align=left;verticalAlign=top;spacingLeft=4;spacingRight=4;whiteSpace=wrap;overflow=hidden;rotatable=0;points=[[0,0.5],[1,0.5]];portConstraint=eastwest;" parent="17acba5748e5396b-2" vertex="1">
          <mxGeometry y="104" width="160" height="26" as="geometry"/>
        </mxCell>
        <mxCell id="17acba5748e5396b-10" value="+ field: type" style="text;html=1;strokeColor=none;fillColor=none;align=left;verticalAlign=top;spacingLeft=4;spacingRight=4;whiteSpace=wrap;overflow=hidden;rotatable=0;points=[[0,0.5],[1,0.5]];portConstraint=eastwest;" parent="17acba5748e5396b-2" vertex="1">
          <mxGeometry y="130" width="160" height="26" as="geometry"/>
        </mxCell>
        <mxCell id="17acba5748e5396b-8" value="+ field: type" style="text;html=1;strokeColor=none;fillColor=none;align=left;verticalAlign=top;spacingLeft=4;spacingRight=4;whiteSpace=wrap;overflow=hidden;rotatable=0;points=[[0,0.5],[1,0.5]];portConstraint=eastwest;" parent="17acba5748e5396b-2" vertex="1">
          <mxGeometry y="156" width="160" height="26" as="geometry"/>
        </mxCell>
        <mxCell id="17acba5748e5396b-20" value="Classname" style="swimlane;html=1;fontStyle=0;childLayout=stackLayout;horizontal=1;startSize=26;fillColor=none;horizontalStack=0;resizeParent=1;resizeLast=0;collapsible=1;marginBottom=0;swimlaneFillColor=#ffffff;rounded=0;shadow=0;comic=0;labelBackgroundColor=none;strokeWidth=1;fontFamily=Verdana;fontSize=10;align=center;" parent="1" vertex="1">
          <mxGeometry x="350" y="42" width="160" height="110" as="geometry"/>
        </mxCell>
        <mxCell id="17acba5748e5396b-21" value="+ field: type" style="text;html=1;strokeColor=none;fillColor=none;align=left;verticalAlign=top;spacingLeft=4;spacingRight=4;whiteSpace=wrap;overflow=hidden;rotatable=0;points=[[0,0.5],[1,0.5]];portConstraint=eastwest;" parent="17acba5748e5396b-20" vertex="1">
          <mxGeometry y="26" width="160" height="26" as="geometry"/>
        </mxCell>
        <mxCell id="17acba5748e5396b-24" value="+ field: type" style="text;html=1;strokeColor=none;fillColor=none;align=left;verticalAlign=top;spacingLeft=4;spacingRight=4;whiteSpace=wrap;overflow=hidden;rotatable=0;points=[[0,0.5],[1,0.5]];portConstraint=eastwest;" parent="17acba5748e5396b-20" vertex="1">
          <mxGeometry y="52" width="160" height="26" as="geometry"/>
        </mxCell>
        <mxCell id="17acba5748e5396b-26" value="+ field: type" style="text;html=1;strokeColor=none;fillColor=none;align=left;verticalAlign=top;spacingLeft=4;spacingRight=4;whiteSpace=wrap;overflow=hidden;rotatable=0;points=[[0,0.5],[1,0.5]];portConstraint=eastwest;" parent="17acba5748e5396b-20" vertex="1">
          <mxGeometry y="78" width="160" height="26" as="geometry"/>
        </mxCell>
        <mxCell id="17acba5748e5396b-30" value="Classname" style="swimlane;html=1;fontStyle=0;childLayout=stackLayout;horizontal=1;startSize=26;fillColor=none;horizontalStack=0;resizeParent=1;resizeLast=0;collapsible=1;marginBottom=0;swimlaneFillColor=#ffffff;rounded=0;shadow=0;comic=0;labelBackgroundColor=none;strokeWidth=1;fontFamily=Verdana;fontSize=10;align=center;" parent="1" vertex="1">
          <mxGeometry x="580" y="87" width="160" height="110" as="geometry"/>
        </mxCell>
        <mxCell id="17acba5748e5396b-31" value="+ field: type" style="text;html=1;strokeColor=none;fillColor=none;align=left;verticalAlign=top;spacingLeft=4;spacingRight=4;whiteSpace=wrap;overflow=hidden;rotatable=0;points=[[0,0.5],[1,0.5]];portConstraint=eastwest;" parent="17acba5748e5396b-30" vertex="1">
          <mxGeometry y="26" width="160" height="26" as="geometry"/>
        </mxCell>
        <mxCell id="17acba5748e5396b-32" value="+ field: type" style="text;html=1;strokeColor=none;fillColor=none;align=left;verticalAlign=top;spacingLeft=4;spacingRight=4;whiteSpace=wrap;overflow=hidden;rotatable=0;points=[[0,0.5],[1,0.5]];portConstraint=eastwest;" parent="17acba5748e5396b-30" vertex="1">
          <mxGeometry y="52" width="160" height="26" as="geometry"/>
        </mxCell>
        <mxCell id="17acba5748e5396b-33" value="+ field: type" style="text;html=1;strokeColor=none;fillColor=none;align=left;verticalAlign=top;spacingLeft=4;spacingRight=4;whiteSpace=wrap;overflow=hidden;rotatable=0;points=[[0,0.5],[1,0.5]];portConstraint=eastwest;" parent="17acba5748e5396b-30" vertex="1">
          <mxGeometry y="78" width="160" height="26" as="geometry"/>
        </mxCell>
        <mxCell id="17acba5748e5396b-44" value="Classname" style="swimlane;html=1;fontStyle=0;childLayout=stackLayout;horizontal=1;startSize=26;fillColor=none;horizontalStack=0;resizeParent=1;resizeLast=0;collapsible=1;marginBottom=0;swimlaneFillColor=#ffffff;rounded=0;shadow=0;comic=0;labelBackgroundColor=none;strokeWidth=1;fontFamily=Verdana;fontSize=10;align=center;" parent="1" vertex="1">
          <mxGeometry x="650" y="978" width="160" height="83" as="geometry"/>
        </mxCell>
        <mxCell id="17acba5748e5396b-45" value="+ field: type" style="text;html=1;strokeColor=none;fillColor=none;align=left;verticalAlign=top;spacingLeft=4;spacingRight=4;whiteSpace=wrap;overflow=hidden;rotatable=0;points=[[0,0.5],[1,0.5]];portConstraint=eastwest;" parent="17acba5748e5396b-44" vertex="1">
          <mxGeometry y="26" width="160" height="26" as="geometry"/>
        </mxCell>
        <mxCell id="17acba5748e5396b-47" value="+ field: type" style="text;html=1;strokeColor=none;fillColor=none;align=left;verticalAlign=top;spacingLeft=4;spacingRight=4;whiteSpace=wrap;overflow=hidden;rotatable=0;points=[[0,0.5],[1,0.5]];portConstraint=eastwest;" parent="17acba5748e5396b-44" vertex="1">
          <mxGeometry y="52" width="160" height="26" as="geometry"/>
        </mxCell>
        <mxCell id="5d2195bd80daf111-39" style="edgeStyle=orthogonalEdgeStyle;rounded=0;html=1;dashed=1;labelBackgroundColor=none;startFill=0;endArrow=open;endFill=0;endSize=10;fontFamily=Verdana;fontSize=10;" parent="1" source="5d2195bd80daf111-1" target="17acba5748e5396b-44" edge="1">
          <mxGeometry relative="1" as="geometry"/>
        </mxCell>
        <mxCell id="5d2195bd80daf111-1" value="Classname" style="swimlane;html=1;fontStyle=0;childLayout=stackLayout;horizontal=1;startSize=26;fillColor=none;horizontalStack=0;resizeParent=1;resizeLast=0;collapsible=1;marginBottom=0;swimlaneFillColor=#ffffff;rounded=0;shadow=0;comic=0;labelBackgroundColor=none;strokeWidth=1;fontFamily=Verdana;fontSize=10;align=center;" parent="1" vertex="1">
          <mxGeometry x="650" y="838" width="160" height="110" as="geometry"/>
        </mxCell>
        <mxCell id="5d2195bd80daf111-2" value="+ field: type" style="text;html=1;strokeColor=none;fillColor=none;align=left;verticalAlign=top;spacingLeft=4;spacingRight=4;whiteSpace=wrap;overflow=hidden;rotatable=0;points=[[0,0.5],[1,0.5]];portConstraint=eastwest;" parent="5d2195bd80daf111-1" vertex="1">
          <mxGeometry y="26" width="160" height="26" as="geometry"/>
        </mxCell>
        <mxCell id="5d2195bd80daf111-3" value="+ field: type" style="text;html=1;strokeColor=none;fillColor=none;align=left;verticalAlign=top;spacingLeft=4;spacingRight=4;whiteSpace=wrap;overflow=hidden;rotatable=0;points=[[0,0.5],[1,0.5]];portConstraint=eastwest;" parent="5d2195bd80daf111-1" vertex="1">
          <mxGeometry y="52" width="160" height="26" as="geometry"/>
        </mxCell>
        <mxCell id="5d2195bd80daf111-4" value="+ field: type" style="text;html=1;strokeColor=none;fillColor=none;align=left;verticalAlign=top;spacingLeft=4;spacingRight=4;whiteSpace=wrap;overflow=hidden;rotatable=0;points=[[0,0.5],[1,0.5]];portConstraint=eastwest;" parent="5d2195bd80daf111-1" vertex="1">
          <mxGeometry y="78" width="160" height="26" as="geometry"/>
        </mxCell>
        <mxCell id="5d2195bd80daf111-41" style="edgeStyle=orthogonalEdgeStyle;rounded=0;html=1;dashed=1;labelBackgroundColor=none;startFill=0;endArrow=open;endFill=0;endSize=10;fontFamily=Verdana;fontSize=10;" parent="1" source="5d2195bd80daf111-5" target="17acba5748e5396b-2" edge="1">
          <mxGeometry relative="1" as="geometry">
            <Array as="points"/>
          </mxGeometry>
        </mxCell>
        <mxCell id="5d2195bd80daf111-5" value="Classname" style="swimlane;html=1;fontStyle=0;childLayout=stackLayout;horizontal=1;startSize=26;fillColor=none;horizontalStack=0;resizeParent=1;resizeLast=0;collapsible=1;marginBottom=0;swimlaneFillColor=#ffffff;rounded=0;shadow=0;comic=0;labelBackgroundColor=none;strokeWidth=1;fontFamily=Verdana;fontSize=10;align=center;" parent="1" vertex="1">
          <mxGeometry x="650" y="520" width="160" height="83" as="geometry"/>
        </mxCell>
        <mxCell id="5d2195bd80daf111-6" value="+ field: type" style="text;html=1;strokeColor=none;fillColor=none;align=left;verticalAlign=top;spacingLeft=4;spacingRight=4;whiteSpace=wrap;overflow=hidden;rotatable=0;points=[[0,0.5],[1,0.5]];portConstraint=eastwest;" parent="5d2195bd80daf111-5" vertex="1">
          <mxGeometry y="26" width="160" height="26" as="geometry"/>
        </mxCell>
        <mxCell id="5d2195bd80daf111-7" value="+ field: type" style="text;html=1;strokeColor=none;fillColor=none;align=left;verticalAlign=top;spacingLeft=4;spacingRight=4;whiteSpace=wrap;overflow=hidden;rotatable=0;points=[[0,0.5],[1,0.5]];portConstraint=eastwest;" parent="5d2195bd80daf111-5" vertex="1">
          <mxGeometry y="52" width="160" height="26" as="geometry"/>
        </mxCell>
        <mxCell id="5d2195bd80daf111-8" value="&amp;laquo;interface&amp;raquo;&lt;br&gt;&lt;b&gt;Name&lt;/b&gt;" style="html=1;rounded=0;shadow=0;comic=0;labelBackgroundColor=none;strokeWidth=1;fontFamily=Verdana;fontSize=10;align=center;" parent="1" vertex="1">
          <mxGeometry x="490" y="1004" width="110" height="50" as="geometry"/>
        </mxCell>
        <mxCell id="5d2195bd80daf111-35" style="edgeStyle=orthogonalEdgeStyle;rounded=0;html=1;dashed=1;labelBackgroundColor=none;startFill=0;endArrow=open;endFill=0;endSize=10;fontFamily=Verdana;fontSize=10;" parent="1" source="5d2195bd80daf111-9" target="5d2195bd80daf111-8" edge="1">
          <mxGeometry relative="1" as="geometry">
            <Array as="points">
              <mxPoint x="545" y="970"/>
              <mxPoint x="545" y="970"/>
            </Array>
          </mxGeometry>
        </mxCell>
        <mxCell id="5d2195bd80daf111-36" style="edgeStyle=orthogonalEdgeStyle;rounded=0;html=1;dashed=1;labelBackgroundColor=none;startFill=0;endArrow=open;endFill=0;endSize=10;fontFamily=Verdana;fontSize=10;" parent="1" source="5d2195bd80daf111-9" target="5d2195bd80daf111-13" edge="1">
          <mxGeometry relative="1" as="geometry">
            <Array as="points">
              <mxPoint x="550" y="520"/>
            </Array>
          </mxGeometry>
        </mxCell>
        <mxCell id="5d2195bd80daf111-9" value="&lt;p style=&quot;margin:0px;margin-top:4px;text-align:center;&quot;&gt;&lt;i&gt;&amp;lt;&amp;lt;Interface&amp;gt;&amp;gt;&lt;/i&gt;&lt;br/&gt;&lt;b&gt;Interface&lt;/b&gt;&lt;/p&gt;&lt;hr size=&quot;1&quot;/&gt;&lt;p style=&quot;margin:0px;margin-left:4px;&quot;&gt;+ field1: Type&lt;br/&gt;+ field2: Type&lt;/p&gt;&lt;hr size=&quot;1&quot;/&gt;&lt;p style=&quot;margin:0px;margin-left:4px;&quot;&gt;+ method1(Type): Type&lt;br/&gt;+ method2(Type, Type): Type&lt;/p&gt;" style="verticalAlign=top;align=left;overflow=fill;fontSize=12;fontFamily=Helvetica;html=1;rounded=0;shadow=0;comic=0;labelBackgroundColor=none;strokeWidth=1" parent="1" vertex="1">
          <mxGeometry x="415" y="823" width="190" height="140" as="geometry"/>
        </mxCell>
        <mxCell id="5d2195bd80daf111-10" value="&lt;p style=&quot;margin:0px;margin-top:4px;text-align:center;&quot;&gt;&lt;i&gt;&amp;lt;&amp;lt;Interface&amp;gt;&amp;gt;&lt;/i&gt;&lt;br/&gt;&lt;b&gt;Interface&lt;/b&gt;&lt;/p&gt;&lt;hr size=&quot;1&quot;/&gt;&lt;p style=&quot;margin:0px;margin-left:4px;&quot;&gt;+ field1: Type&lt;br/&gt;+ field2: Type&lt;/p&gt;&lt;hr size=&quot;1&quot;/&gt;&lt;p style=&quot;margin:0px;margin-left:4px;&quot;&gt;+ method1(Type): Type&lt;br/&gt;+ method2(Type, Type): Type&lt;/p&gt;" style="verticalAlign=top;align=left;overflow=fill;fontSize=12;fontFamily=Helvetica;html=1;rounded=0;shadow=0;comic=0;labelBackgroundColor=none;strokeWidth=1" parent="1" vertex="1">
          <mxGeometry x="350" y="572" width="190" height="140" as="geometry"/>
        </mxCell>
        <mxCell id="5d2195bd80daf111-34" style="edgeStyle=orthogonalEdgeStyle;rounded=0;html=1;dashed=1;labelBackgroundColor=none;startFill=0;endArrow=open;endFill=0;endSize=10;fontFamily=Verdana;fontSize=10;" parent="1" source="5d2195bd80daf111-11" target="5d2195bd80daf111-8" edge="1">
          <mxGeometry relative="1" as="geometry">
            <Array as="points">
              <mxPoint x="410" y="1029"/>
              <mxPoint x="410" y="1029"/>
            </Array>
          </mxGeometry>
        </mxCell>
        <mxCell id="5d2195bd80daf111-11" value="&lt;p style=&quot;margin:0px;margin-top:4px;text-align:center;&quot;&gt;&lt;i&gt;&amp;lt;&amp;lt;Interface&amp;gt;&amp;gt;&lt;/i&gt;&lt;br/&gt;&lt;b&gt;Interface&lt;/b&gt;&lt;/p&gt;&lt;hr size=&quot;1&quot;/&gt;&lt;p style=&quot;margin:0px;margin-left:4px;&quot;&gt;+ field1: Type&lt;br/&gt;+ field2: Type&lt;/p&gt;&lt;hr size=&quot;1&quot;/&gt;&lt;p style=&quot;margin:0px;margin-left:4px;&quot;&gt;+ method1(Type): Type&lt;br/&gt;+ method2(Type, Type): Type&lt;/p&gt;" style="verticalAlign=top;align=left;overflow=fill;fontSize=12;fontFamily=Helvetica;html=1;rounded=0;shadow=0;comic=0;labelBackgroundColor=none;strokeWidth=1" parent="1" vertex="1">
          <mxGeometry x="190" y="908" width="190" height="140" as="geometry"/>
        </mxCell>
        <mxCell id="5d2195bd80daf111-12" value="&lt;p style=&quot;margin:0px;margin-top:4px;text-align:center;&quot;&gt;&lt;i&gt;&amp;lt;&amp;lt;Interface&amp;gt;&amp;gt;&lt;/i&gt;&lt;br/&gt;&lt;b&gt;Interface&lt;/b&gt;&lt;/p&gt;&lt;hr size=&quot;1&quot;/&gt;&lt;p style=&quot;margin:0px;margin-left:4px;&quot;&gt;+ field1: Type&lt;br/&gt;+ field2: Type&lt;/p&gt;&lt;hr size=&quot;1&quot;/&gt;&lt;p style=&quot;margin:0px;margin-left:4px;&quot;&gt;+ method1(Type): Type&lt;br/&gt;+ method2(Type, Type): Type&lt;/p&gt;" style="verticalAlign=top;align=left;overflow=fill;fontSize=12;fontFamily=Helvetica;html=1;rounded=0;shadow=0;comic=0;labelBackgroundColor=none;strokeWidth=1" parent="1" vertex="1">
          <mxGeometry x="190" y="744" width="190" height="140" as="geometry"/>
        </mxCell>
        <mxCell id="5d2195bd80daf111-13" value="&amp;laquo;interface&amp;raquo;&lt;br&gt;&lt;b&gt;Name&lt;/b&gt;" style="html=1;rounded=0;shadow=0;comic=0;labelBackgroundColor=none;strokeWidth=1;fontFamily=Verdana;fontSize=10;align=center;" parent="1" vertex="1">
          <mxGeometry x="380" y="495" width="110" height="50" as="geometry"/>
        </mxCell>
        <mxCell id="5d2195bd80daf111-14" value="&amp;laquo;interface&amp;raquo;&lt;br&gt;&lt;b&gt;Name&lt;/b&gt;" style="html=1;rounded=0;shadow=0;comic=0;labelBackgroundColor=none;strokeWidth=1;fontFamily=Verdana;fontSize=10;align=center;" parent="1" vertex="1">
          <mxGeometry x="380" y="421" width="110" height="50" as="geometry"/>
        </mxCell>
        <mxCell id="5d2195bd80daf111-26" style="edgeStyle=orthogonalEdgeStyle;rounded=0;html=1;dashed=1;labelBackgroundColor=none;startFill=0;endArrow=open;endFill=0;endSize=10;fontFamily=Verdana;fontSize=10;" parent="1" source="5d2195bd80daf111-15" target="5d2195bd80daf111-17" edge="1">
          <mxGeometry relative="1" as="geometry">
            <Array as="points"/>
          </mxGeometry>
        </mxCell>
        <mxCell id="5d2195bd80daf111-15" value="&lt;p style=&quot;margin:0px;margin-top:4px;text-align:center;&quot;&gt;&lt;i&gt;&amp;lt;&amp;lt;Interface&amp;gt;&amp;gt;&lt;/i&gt;&lt;br/&gt;&lt;b&gt;Interface&lt;/b&gt;&lt;/p&gt;&lt;hr size=&quot;1&quot;/&gt;&lt;p style=&quot;margin:0px;margin-left:4px;&quot;&gt;+ field1: Type&lt;br/&gt;+ field2: Type&lt;/p&gt;&lt;hr size=&quot;1&quot;/&gt;&lt;p style=&quot;margin:0px;margin-left:4px;&quot;&gt;+ method1(Type): Type&lt;br/&gt;+ method2(Type, Type): Type&lt;/p&gt;" style="verticalAlign=top;align=left;overflow=fill;fontSize=12;fontFamily=Helvetica;html=1;rounded=0;shadow=0;comic=0;labelBackgroundColor=none;strokeWidth=1" parent="1" vertex="1">
          <mxGeometry x="450" y="230" width="190" height="140" as="geometry"/>
        </mxCell>
        <mxCell id="5d2195bd80daf111-16" value="Text" style="text;html=1;resizable=0;points=[];autosize=1;align=left;verticalAlign=top;spacingTop=-4;fontSize=10;fontFamily=Verdana;fontColor=#000000;" parent="1" vertex="1">
          <mxGeometry x="450" y="454" width="40" height="10" as="geometry"/>
        </mxCell>
        <mxCell id="5d2195bd80daf111-17" value="&amp;laquo;interface&amp;raquo;&lt;br&gt;&lt;b&gt;Name&lt;/b&gt;" style="html=1;rounded=0;shadow=0;comic=0;labelBackgroundColor=none;strokeWidth=1;fontFamily=Verdana;fontSize=10;align=center;" parent="1" vertex="1">
          <mxGeometry x="685" y="275" width="110" height="50" as="geometry"/>
        </mxCell>
        <mxCell id="5d2195bd80daf111-21" style="edgeStyle=orthogonalEdgeStyle;rounded=0;html=1;labelBackgroundColor=none;startFill=0;endArrow=open;endFill=0;endSize=10;fontFamily=Verdana;fontSize=10;dashed=1;" parent="1" source="5d2195bd80daf111-18" target="17acba5748e5396b-20" edge="1">
          <mxGeometry relative="1" as="geometry"/>
        </mxCell>
        <mxCell id="5d2195bd80daf111-22" style="edgeStyle=orthogonalEdgeStyle;rounded=0;html=1;exitX=1;exitY=0.75;dashed=1;labelBackgroundColor=none;startFill=0;endArrow=open;endFill=0;endSize=10;fontFamily=Verdana;fontSize=10;" parent="1" source="5d2195bd80daf111-18" target="17acba5748e5396b-30" edge="1">
          <mxGeometry relative="1" as="geometry">
            <Array as="points">
              <mxPoint x="530" y="192"/>
              <mxPoint x="530" y="142"/>
            </Array>
          </mxGeometry>
        </mxCell>
        <mxCell id="5d2195bd80daf111-18" value="&lt;p style=&quot;margin:0px;margin-top:4px;text-align:center;&quot;&gt;&lt;i&gt;&amp;lt;&amp;lt;Interface&amp;gt;&amp;gt;&lt;/i&gt;&lt;br/&gt;&lt;b&gt;Interface&lt;/b&gt;&lt;/p&gt;&lt;hr size=&quot;1&quot;/&gt;&lt;p style=&quot;margin:0px;margin-left:4px;&quot;&gt;+ field1: Type&lt;br/&gt;+ field2: Type&lt;/p&gt;&lt;hr size=&quot;1&quot;/&gt;&lt;p style=&quot;margin:0px;margin-left:4px;&quot;&gt;+ method1(Type): Type&lt;br/&gt;+ method2(Type, Type): Type&lt;/p&gt;" style="verticalAlign=top;align=left;overflow=fill;fontSize=12;fontFamily=Helvetica;html=1;rounded=0;shadow=0;comic=0;labelBackgroundColor=none;strokeWidth=1" parent="1" vertex="1">
          <mxGeometry x="60" y="87" width="190" height="140" as="geometry"/>
        </mxCell>
        <mxCell id="5d2195bd80daf111-23" style="edgeStyle=orthogonalEdgeStyle;rounded=0;html=1;dashed=1;labelBackgroundColor=none;startFill=0;endArrow=open;endFill=0;endSize=10;fontFamily=Verdana;fontSize=10;" parent="1" source="5d2195bd80daf111-19" target="17acba5748e5396b-20" edge="1">
          <mxGeometry relative="1" as="geometry">
            <Array as="points">
              <mxPoint x="320" y="290"/>
              <mxPoint x="320" y="120"/>
            </Array>
          </mxGeometry>
        </mxCell>
        <mxCell id="5d2195bd80daf111-24" style="edgeStyle=orthogonalEdgeStyle;rounded=0;html=1;dashed=1;labelBackgroundColor=none;startFill=0;endArrow=open;endFill=0;endSize=10;fontFamily=Verdana;fontSize=10;" parent="1" source="5d2195bd80daf111-19" target="17acba5748e5396b-30" edge="1">
          <mxGeometry relative="1" as="geometry">
            <Array as="points">
              <mxPoint x="350" y="310"/>
              <mxPoint x="350" y="210"/>
              <mxPoint x="550" y="210"/>
              <mxPoint x="550" y="160"/>
            </Array>
          </mxGeometry>
        </mxCell>
        <mxCell id="5d2195bd80daf111-25" style="edgeStyle=orthogonalEdgeStyle;rounded=0;html=1;dashed=1;labelBackgroundColor=none;startFill=0;endArrow=open;endFill=0;endSize=10;fontFamily=Verdana;fontSize=10;" parent="1" source="5d2195bd80daf111-19" target="5d2195bd80daf111-15" edge="1">
          <mxGeometry relative="1" as="geometry">
            <Array as="points">
              <mxPoint x="370" y="340"/>
              <mxPoint x="370" y="300"/>
            </Array>
          </mxGeometry>
        </mxCell>
        <mxCell id="5d2195bd80daf111-27" style="edgeStyle=orthogonalEdgeStyle;rounded=0;html=1;exitX=1;exitY=0.75;dashed=1;labelBackgroundColor=none;startFill=0;endArrow=open;endFill=0;endSize=10;fontFamily=Verdana;fontSize=10;" parent="1" source="5d2195bd80daf111-19" target="5d2195bd80daf111-14" edge="1">
          <mxGeometry relative="1" as="geometry">
            <Array as="points">
              <mxPoint x="320" y="375"/>
              <mxPoint x="320" y="440"/>
            </Array>
          </mxGeometry>
        </mxCell>
        <mxCell id="5d2195bd80daf111-19" value="&lt;p style=&quot;margin:0px;margin-top:4px;text-align:center;&quot;&gt;&lt;i&gt;&amp;lt;&amp;lt;Interface&amp;gt;&amp;gt;&lt;/i&gt;&lt;br/&gt;&lt;b&gt;Interface&lt;/b&gt;&lt;/p&gt;&lt;hr size=&quot;1&quot;/&gt;&lt;p style=&quot;margin:0px;margin-left:4px;&quot;&gt;+ field1: Type&lt;br/&gt;+ field2: Type&lt;/p&gt;&lt;hr size=&quot;1&quot;/&gt;&lt;p style=&quot;margin:0px;margin-left:4px;&quot;&gt;+ method1(Type): Type&lt;br/&gt;+ method2(Type, Type): Type&lt;/p&gt;" style="verticalAlign=top;align=left;overflow=fill;fontSize=12;fontFamily=Helvetica;html=1;rounded=0;shadow=0;comic=0;labelBackgroundColor=none;strokeWidth=1" parent="1" vertex="1">
          <mxGeometry x="60" y="270" width="190" height="140" as="geometry"/>
        </mxCell>
        <mxCell id="5d2195bd80daf111-28" style="edgeStyle=orthogonalEdgeStyle;rounded=0;html=1;dashed=1;labelBackgroundColor=none;startFill=0;endArrow=open;endFill=0;endSize=10;fontFamily=Verdana;fontSize=10;" parent="1" source="5d2195bd80daf111-20" target="5d2195bd80daf111-14" edge="1">
          <mxGeometry relative="1" as="geometry">
            <Array as="points">
              <mxPoint x="320" y="490"/>
              <mxPoint x="320" y="460"/>
            </Array>
          </mxGeometry>
        </mxCell>
        <mxCell id="5d2195bd80daf111-29" style="edgeStyle=orthogonalEdgeStyle;rounded=0;html=1;dashed=1;labelBackgroundColor=none;startFill=0;endArrow=open;endFill=0;endSize=10;fontFamily=Verdana;fontSize=10;" parent="1" source="5d2195bd80daf111-20" target="5d2195bd80daf111-13" edge="1">
          <mxGeometry relative="1" as="geometry"/>
        </mxCell>
        <mxCell id="5d2195bd80daf111-30" style="edgeStyle=orthogonalEdgeStyle;rounded=0;html=1;dashed=1;labelBackgroundColor=none;startFill=0;endArrow=open;endFill=0;endSize=10;fontFamily=Verdana;fontSize=10;" parent="1" source="5d2195bd80daf111-20" target="5d2195bd80daf111-10" edge="1">
          <mxGeometry relative="1" as="geometry">
            <Array as="points">
              <mxPoint x="300" y="580"/>
              <mxPoint x="300" y="642"/>
            </Array>
          </mxGeometry>
        </mxCell>
        <mxCell id="5d2195bd80daf111-31" style="edgeStyle=orthogonalEdgeStyle;rounded=0;html=1;dashed=1;labelBackgroundColor=none;startFill=0;endArrow=open;endFill=0;endSize=10;fontFamily=Verdana;fontSize=10;" parent="1" source="5d2195bd80daf111-20" target="5d2195bd80daf111-5" edge="1">
          <mxGeometry relative="1" as="geometry">
            <Array as="points">
              <mxPoint x="350" y="560"/>
              <mxPoint x="350" y="560"/>
            </Array>
          </mxGeometry>
        </mxCell>
        <mxCell id="5d2195bd80daf111-32" style="edgeStyle=orthogonalEdgeStyle;rounded=0;html=1;dashed=1;labelBackgroundColor=none;startFill=0;endArrow=open;endFill=0;endSize=10;fontFamily=Verdana;fontSize=10;" parent="1" source="5d2195bd80daf111-20" target="5d2195bd80daf111-12" edge="1">
          <mxGeometry relative="1" as="geometry">
            <Array as="points">
              <mxPoint x="170" y="780"/>
            </Array>
          </mxGeometry>
        </mxCell>
        <mxCell id="5d2195bd80daf111-33" style="edgeStyle=orthogonalEdgeStyle;rounded=0;html=1;dashed=1;labelBackgroundColor=none;startFill=0;endArrow=open;endFill=0;endSize=10;fontFamily=Verdana;fontSize=10;" parent="1" source="5d2195bd80daf111-20" target="5d2195bd80daf111-11" edge="1">
          <mxGeometry relative="1" as="geometry">
            <Array as="points">
              <mxPoint x="140" y="978"/>
            </Array>
          </mxGeometry>
        </mxCell>
        <mxCell id="5d2195bd80daf111-20" value="&lt;p style=&quot;margin:0px;margin-top:4px;text-align:center;&quot;&gt;&lt;i&gt;&amp;lt;&amp;lt;Interface&amp;gt;&amp;gt;&lt;/i&gt;&lt;br/&gt;&lt;b&gt;Interface&lt;/b&gt;&lt;/p&gt;&lt;hr size=&quot;1&quot;/&gt;&lt;p style=&quot;margin:0px;margin-left:4px;&quot;&gt;+ field1: Type&lt;br/&gt;+ field2: Type&lt;/p&gt;&lt;hr size=&quot;1&quot;/&gt;&lt;p style=&quot;margin:0px;margin-left:4px;&quot;&gt;+ method1(Type): Type&lt;br/&gt;+ method2(Type, Type): Type&lt;/p&gt;" style="verticalAlign=top;align=left;overflow=fill;fontSize=12;fontFamily=Helvetica;html=1;rounded=0;shadow=0;comic=0;labelBackgroundColor=none;strokeWidth=1" parent="1" vertex="1">
          <mxGeometry x="60" y="450" width="190" height="140" as="geometry"/>
        </mxCell>
        <mxCell id="5d2195bd80daf111-37" style="edgeStyle=orthogonalEdgeStyle;rounded=0;html=1;dashed=1;labelBackgroundColor=none;startFill=0;endArrow=open;endFill=0;endSize=10;fontFamily=Verdana;fontSize=10;" parent="1" source="5d2195bd80daf111-5" target="5d2195bd80daf111-9" edge="1">
          <mxGeometry relative="1" as="geometry">
            <Array as="points">
              <mxPoint x="570" y="590"/>
            </Array>
          </mxGeometry>
        </mxCell>
      </root>
    </mxGraphModel>
  </diagram>
</mxfile>
